# Blender 3.4.1
# www.blender.org
mtllib yol.mtl
o Cube
v 14.358777 0.250000 -1.000000
v 14.358777 -0.250000 -1.000000
v 14.358777 0.250000 1.000000
v 14.358777 -0.250000 1.000000
v -13.986951 0.250000 -1.000000
v -13.986951 -0.250000 -1.000000
v -13.986951 0.250000 1.000000
v -13.986951 -0.250000 1.000000
v 13.177704 -0.250000 -1.000000
v 11.996633 -0.250000 -1.000000
v 10.815561 -0.250000 -1.000000
v 9.634488 -0.250000 -1.000000
v 8.453417 -0.250000 -1.000000
v 7.272345 -0.250000 -1.000000
v 6.091274 -0.250000 -1.000000
v 4.910202 -0.250000 -1.000000
v 3.729130 -0.250000 -1.000000
v 2.548058 -0.250000 -1.000000
v 1.366986 -0.250000 -1.000000
v 0.185914 -0.250000 -1.000000
v -0.995158 -0.250000 -1.000000
v -2.176230 -0.250000 -1.000000
v -3.357302 -0.250000 -1.000000
v -4.538374 -0.250000 -1.000000
v -5.719446 -0.250000 -1.000000
v -6.900518 -0.250000 -1.000000
v -8.081591 -0.250000 -1.000000
v -9.262662 -0.250000 -1.000000
v -10.443733 -0.250000 -1.000000
v -11.624805 -0.250000 -1.000000
v -12.805878 -0.250000 -1.000000
v 13.177704 0.250000 1.000000
v 11.996633 0.250000 1.000000
v 10.815561 0.250000 1.000000
v 9.634488 0.250000 1.000000
v 8.453417 0.250000 1.000000
v 7.272345 0.250000 1.000000
v 6.091274 0.250000 1.000000
v 4.910202 0.250000 1.000000
v 3.729130 0.250000 1.000000
v 2.548058 0.250000 1.000000
v 1.366986 0.250000 1.000000
v 0.185914 0.250000 1.000000
v -0.995158 0.250000 1.000000
v -2.176230 0.250000 1.000000
v -3.357302 0.250000 1.000000
v -4.538374 0.250000 1.000000
v -5.719446 0.250000 1.000000
v -6.900518 0.250000 1.000000
v -8.081591 0.250000 1.000000
v -9.262662 0.250000 1.000000
v -10.443733 0.250000 1.000000
v -11.624805 0.250000 1.000000
v -12.805878 0.250000 1.000000
v -12.805878 -0.250000 1.000000
v -11.624807 -0.250000 1.000000
v -10.443735 -0.250000 1.000000
v -9.262665 -0.250000 1.000000
v -8.081593 -0.250000 1.000000
v -6.900520 -0.250000 1.000000
v -5.719448 -0.250000 1.000000
v -4.538376 -0.250000 1.000000
v -3.357304 -0.250000 1.000000
v -2.176232 -0.250000 1.000000
v -0.995160 -0.250000 1.000000
v 0.185912 -0.250000 1.000000
v 1.366984 -0.250000 1.000000
v 2.548056 -0.250000 1.000000
v 3.729128 -0.250000 1.000000
v 4.910200 -0.250000 1.000000
v 6.091272 -0.250000 1.000000
v 7.272344 -0.250000 1.000000
v 8.453415 -0.250000 1.000000
v 9.634487 -0.250000 1.000000
v 10.815559 -0.250000 1.000000
v 11.996632 -0.250000 1.000000
v 13.177703 -0.250000 1.000000
v -12.805878 0.250000 -1.000000
v -11.624807 0.250000 -1.000000
v -10.443735 0.250000 -1.000000
v -9.262665 0.250000 -1.000000
v -8.081593 0.250000 -1.000000
v -6.900520 0.250000 -1.000000
v -5.719448 0.250000 -1.000000
v -4.538376 0.250000 -1.000000
v -3.357304 0.250000 -1.000000
v -2.176232 0.250000 -1.000000
v -0.995160 0.250000 -1.000000
v 0.185912 0.250000 -1.000000
v 1.366984 0.250000 -1.000000
v 2.548056 0.250000 -1.000000
v 3.729128 0.250000 -1.000000
v 4.910200 0.250000 -1.000000
v 6.091272 0.250000 -1.000000
v 7.272344 0.250000 -1.000000
v 8.453415 0.250000 -1.000000
v 9.634487 0.250000 -1.000000
v 10.815559 0.250000 -1.000000
v 11.996632 0.250000 -1.000000
v 13.177703 0.250000 -1.000000
v -13.986951 -0.250000 0.000000
v 14.358777 0.250000 0.000000
v -13.986951 0.250000 0.000000
v 14.358777 -0.250000 0.000000
v -13.412115 -0.250000 0.000000
v -12.231044 -0.250000 0.000000
v -11.049972 -0.250000 0.000000
v -9.868899 -0.250000 0.000000
v -8.687828 -0.250000 0.000000
v -7.506757 -0.250000 0.000000
v -6.325685 -0.250000 0.000000
v -5.144612 -0.250000 0.000000
v -3.963540 -0.250000 0.000000
v -2.782468 -0.250000 0.000000
v -1.601396 -0.250000 0.000000
v -0.420324 -0.250000 0.000000
v 0.760748 -0.250000 0.000000
v 1.941820 -0.250000 0.000000
v 3.122892 -0.250000 0.000000
v 4.303964 -0.250000 0.000000
v 5.485036 -0.250000 0.000000
v 6.666108 -0.250000 0.000000
v 7.847179 -0.250000 0.000000
v 9.028251 -0.250000 0.000000
v 10.209323 -0.250000 0.000000
v 11.390395 -0.250000 0.000000
v 12.571465 -0.250000 0.000000
v 12.571465 0.250000 0.000000
v 11.390395 0.250000 0.000000
v 10.209323 0.250000 0.000000
v 9.028251 0.250000 0.000000
v 7.847179 0.250000 0.000000
v 6.666108 0.250000 0.000000
v 5.485036 0.250000 0.000000
v 4.303964 0.250000 0.000000
v 3.122892 0.250000 0.000000
v 1.941820 0.250000 0.000000
v 0.760748 0.250000 0.000000
v -0.420324 0.250000 0.000000
v -1.601396 0.250000 0.000000
v -2.782468 0.250000 0.000000
v -3.963540 0.250000 0.000000
v -5.144612 0.250000 0.000000
v -6.325685 0.250000 0.000000
v -7.506757 0.250000 0.000000
v -8.687828 0.250000 0.000000
v -9.868899 0.250000 0.000000
v -11.049972 0.250000 0.000000
v -12.231044 0.250000 0.000000
v -13.412115 0.250000 0.000000
vn -0.0000 1.0000 -0.0000
vn -0.0000 -0.0000 1.0000
vn -1.0000 -0.0000 -0.0000
vn -0.0000 -1.0000 -0.0000
vn 1.0000 -0.0000 -0.0000
vn -0.0000 -0.0000 -1.0000
vt 0.625000 0.500000
vt 0.375000 0.500000
vt 0.625000 0.750000
vt 0.375000 0.750000
vt 0.625000 0.250000
vt 0.875000 0.500000
vt 0.375000 0.250000
vt 0.125000 0.500000
vt 0.875000 0.750000
vt 0.625000 1.000000
vt 0.625000 0.000000
vt 0.375000 1.000000
vt 0.125000 0.750000
vt 0.375000 0.000000
vt 0.375000 0.489583
vt 0.364583 0.500000
vt 0.375000 0.479167
vt 0.354167 0.500000
vt 0.375000 0.468750
vt 0.343750 0.500000
vt 0.375000 0.458333
vt 0.333333 0.500000
vt 0.375000 0.447917
vt 0.322917 0.500000
vt 0.375000 0.437500
vt 0.312500 0.500000
vt 0.375000 0.427083
vt 0.302083 0.500000
vt 0.375000 0.416667
vt 0.291667 0.500000
vt 0.375000 0.406250
vt 0.281250 0.500000
vt 0.375000 0.395833
vt 0.270833 0.500000
vt 0.375000 0.385417
vt 0.260417 0.500000
vt 0.375000 0.375000
vt 0.250000 0.500000
vt 0.375000 0.364583
vt 0.239583 0.500000
vt 0.375000 0.354167
vt 0.229167 0.500000
vt 0.375000 0.343750
vt 0.218750 0.500000
vt 0.375000 0.333333
vt 0.208333 0.500000
vt 0.375000 0.322917
vt 0.197917 0.500000
vt 0.375000 0.312500
vt 0.187500 0.500000
vt 0.375000 0.302083
vt 0.177083 0.500000
vt 0.375000 0.291667
vt 0.166667 0.500000
vt 0.375000 0.281250
vt 0.156250 0.500000
vt 0.375000 0.270833
vt 0.145833 0.500000
vt 0.375000 0.260417
vt 0.135417 0.500000
vt 0.625000 0.760417
vt 0.635417 0.750000
vt 0.625000 0.770833
vt 0.645833 0.750000
vt 0.625000 0.781250
vt 0.656250 0.750000
vt 0.625000 0.791667
vt 0.666667 0.750000
vt 0.625000 0.802083
vt 0.677083 0.750000
vt 0.625000 0.812500
vt 0.687500 0.750000
vt 0.625000 0.822917
vt 0.697917 0.750000
vt 0.625000 0.833333
vt 0.708333 0.750000
vt 0.625000 0.843750
vt 0.718750 0.750000
vt 0.625000 0.854167
vt 0.729167 0.750000
vt 0.625000 0.864583
vt 0.739583 0.750000
vt 0.625000 0.875000
vt 0.750000 0.750000
vt 0.625000 0.885417
vt 0.760417 0.750000
vt 0.625000 0.895833
vt 0.770833 0.750000
vt 0.625000 0.906250
vt 0.781250 0.750000
vt 0.625000 0.916667
vt 0.791667 0.750000
vt 0.625000 0.927083
vt 0.802083 0.750000
vt 0.625000 0.937500
vt 0.812500 0.750000
vt 0.625000 0.947917
vt 0.822917 0.750000
vt 0.625000 0.958333
vt 0.833333 0.750000
vt 0.625000 0.968750
vt 0.843750 0.750000
vt 0.625000 0.979167
vt 0.854167 0.750000
vt 0.625000 0.989583
vt 0.864583 0.750000
vt 0.135417 0.750000
vt 0.375000 0.989583
vt 0.145833 0.750000
vt 0.375000 0.979167
vt 0.156250 0.750000
vt 0.375000 0.968750
vt 0.166667 0.750000
vt 0.375000 0.958333
vt 0.177083 0.750000
vt 0.375000 0.947917
vt 0.187500 0.750000
vt 0.375000 0.937500
vt 0.197917 0.750000
vt 0.375000 0.927083
vt 0.208333 0.750000
vt 0.375000 0.916667
vt 0.218750 0.750000
vt 0.375000 0.906250
vt 0.229167 0.750000
vt 0.375000 0.895833
vt 0.239583 0.750000
vt 0.375000 0.885417
vt 0.250000 0.750000
vt 0.375000 0.875000
vt 0.260417 0.750000
vt 0.375000 0.864583
vt 0.270833 0.750000
vt 0.375000 0.854167
vt 0.281250 0.750000
vt 0.375000 0.843750
vt 0.291667 0.750000
vt 0.375000 0.833333
vt 0.302083 0.750000
vt 0.375000 0.822917
vt 0.312500 0.750000
vt 0.375000 0.812500
vt 0.322917 0.750000
vt 0.375000 0.802083
vt 0.333333 0.750000
vt 0.375000 0.791667
vt 0.343750 0.750000
vt 0.375000 0.781250
vt 0.354167 0.750000
vt 0.375000 0.770833
vt 0.364583 0.750000
vt 0.375000 0.760417
vt 0.625000 0.260417
vt 0.864583 0.500000
vt 0.625000 0.270833
vt 0.854167 0.500000
vt 0.625000 0.281250
vt 0.843750 0.500000
vt 0.625000 0.291667
vt 0.833333 0.500000
vt 0.625000 0.302083
vt 0.822917 0.500000
vt 0.625000 0.312500
vt 0.812500 0.500000
vt 0.625000 0.322917
vt 0.802083 0.500000
vt 0.625000 0.333333
vt 0.791667 0.500000
vt 0.625000 0.343750
vt 0.781250 0.500000
vt 0.625000 0.354167
vt 0.770833 0.500000
vt 0.625000 0.364583
vt 0.760417 0.500000
vt 0.625000 0.375000
vt 0.750000 0.500000
vt 0.625000 0.385417
vt 0.739583 0.500000
vt 0.625000 0.395833
vt 0.729167 0.500000
vt 0.625000 0.406250
vt 0.718750 0.500000
vt 0.625000 0.416667
vt 0.708333 0.500000
vt 0.625000 0.427083
vt 0.697917 0.500000
vt 0.625000 0.437500
vt 0.687500 0.500000
vt 0.625000 0.447917
vt 0.677083 0.500000
vt 0.625000 0.458333
vt 0.666667 0.500000
vt 0.625000 0.468750
vt 0.656250 0.500000
vt 0.625000 0.479167
vt 0.645833 0.500000
vt 0.625000 0.489583
vt 0.635417 0.500000
vt 0.125000 0.625000
vt 0.375000 0.125000
vt 0.625000 0.625000
vt 0.625000 0.125000
vt 0.875000 0.625000
vt 0.375000 0.625000
vt 0.135417 0.625000
vt 0.145833 0.625000
vt 0.156250 0.625000
vt 0.166667 0.625000
vt 0.177083 0.625000
vt 0.187500 0.625000
vt 0.197917 0.625000
vt 0.208333 0.625000
vt 0.218750 0.625000
vt 0.229167 0.625000
vt 0.239583 0.625000
vt 0.250000 0.625000
vt 0.260417 0.625000
vt 0.270833 0.625000
vt 0.281250 0.625000
vt 0.291667 0.625000
vt 0.302083 0.625000
vt 0.312500 0.625000
vt 0.322917 0.625000
vt 0.333333 0.625000
vt 0.343750 0.625000
vt 0.354167 0.625000
vt 0.364583 0.625000
vt 0.635417 0.625000
vt 0.645833 0.625000
vt 0.656250 0.625000
vt 0.666667 0.625000
vt 0.677083 0.625000
vt 0.687500 0.625000
vt 0.697917 0.625000
vt 0.708333 0.625000
vt 0.718750 0.625000
vt 0.729167 0.625000
vt 0.739583 0.625000
vt 0.750000 0.625000
vt 0.760417 0.625000
vt 0.770833 0.625000
vt 0.781250 0.625000
vt 0.791667 0.625000
vt 0.802083 0.625000
vt 0.812500 0.625000
vt 0.822917 0.625000
vt 0.833333 0.625000
vt 0.843750 0.625000
vt 0.854167 0.625000
vt 0.864583 0.625000
s 0
usemtl Material
f 150/250/1 103/203/1 7/9/1 54/106/1
f 55/108/2 54/105/2 7/10/2 8/12/2
f 101/200/3 103/202/3 5/5/3 6/7/3
f 127/227/4 104/204/4 4/4/4 77/151/4
f 104/204/5 102/201/5 3/3/5 4/4/5
f 9/15/6 100/197/6 1/1/6 2/2/6
f 6/7/6 5/5/6 78/153/6 31/59/6
f 31/59/6 78/153/6 79/155/6 30/57/6
f 30/57/6 79/155/6 80/157/6 29/55/6
f 29/55/6 80/157/6 81/159/6 28/53/6
f 28/53/6 81/159/6 82/161/6 27/51/6
f 27/51/6 82/161/6 83/163/6 26/49/6
f 26/49/6 83/163/6 84/165/6 25/47/6
f 25/47/6 84/165/6 85/167/6 24/45/6
f 24/45/6 85/167/6 86/169/6 23/43/6
f 23/43/6 86/169/6 87/171/6 22/41/6
f 22/41/6 87/171/6 88/173/6 21/39/6
f 21/39/6 88/173/6 89/175/6 20/37/6
f 20/37/6 89/175/6 90/177/6 19/35/6
f 19/35/6 90/177/6 91/179/6 18/33/6
f 18/33/6 91/179/6 92/181/6 17/31/6
f 17/31/6 92/181/6 93/183/6 16/29/6
f 16/29/6 93/183/6 94/185/6 15/27/6
f 15/27/6 94/185/6 95/187/6 14/25/6
f 14/25/6 95/187/6 96/189/6 13/23/6
f 13/23/6 96/189/6 97/191/6 12/21/6
f 12/21/6 97/191/6 98/193/6 11/19/6
f 11/19/6 98/193/6 99/195/6 10/17/6
f 10/17/6 99/195/6 100/197/6 9/15/6
f 101/199/4 105/205/4 55/107/4 8/13/4
f 105/205/4 106/206/4 56/109/4 55/107/4
f 106/206/4 107/207/4 57/111/4 56/109/4
f 107/207/4 108/208/4 58/113/4 57/111/4
f 108/208/4 109/209/4 59/115/4 58/113/4
f 109/209/4 110/210/4 60/117/4 59/115/4
f 110/210/4 111/211/4 61/119/4 60/117/4
f 111/211/4 112/212/4 62/121/4 61/119/4
f 112/212/4 113/213/4 63/123/4 62/121/4
f 113/213/4 114/214/4 64/125/4 63/123/4
f 114/214/4 115/215/4 65/127/4 64/125/4
f 115/215/4 116/216/4 66/129/4 65/127/4
f 116/216/4 117/217/4 67/131/4 66/129/4
f 117/217/4 118/218/4 68/133/4 67/131/4
f 118/218/4 119/219/4 69/135/4 68/133/4
f 119/219/4 120/220/4 70/137/4 69/135/4
f 120/220/4 121/221/4 71/139/4 70/137/4
f 121/221/4 122/222/4 72/141/4 71/139/4
f 122/222/4 123/223/4 73/143/4 72/141/4
f 123/223/4 124/224/4 74/145/4 73/143/4
f 124/224/4 125/225/4 75/147/4 74/145/4
f 125/225/4 126/226/4 76/149/4 75/147/4
f 126/226/4 127/227/4 77/151/4 76/149/4
f 4/4/2 3/3/2 32/61/2 77/152/2
f 77/152/2 32/61/2 33/63/2 76/150/2
f 76/150/2 33/63/2 34/65/2 75/148/2
f 75/148/2 34/65/2 35/67/2 74/146/2
f 74/146/2 35/67/2 36/69/2 73/144/2
f 73/144/2 36/69/2 37/71/2 72/142/2
f 72/142/2 37/71/2 38/73/2 71/140/2
f 71/140/2 38/73/2 39/75/2 70/138/2
f 70/138/2 39/75/2 40/77/2 69/136/2
f 69/136/2 40/77/2 41/79/2 68/134/2
f 68/134/2 41/79/2 42/81/2 67/132/2
f 67/132/2 42/81/2 43/83/2 66/130/2
f 66/130/2 43/83/2 44/85/2 65/128/2
f 65/128/2 44/85/2 45/87/2 64/126/2
f 64/126/2 45/87/2 46/89/2 63/124/2
f 63/124/2 46/89/2 47/91/2 62/122/2
f 62/122/2 47/91/2 48/93/2 61/120/2
f 61/120/2 48/93/2 49/95/2 60/118/2
f 60/118/2 49/95/2 50/97/2 59/116/2
f 59/116/2 50/97/2 51/99/2 58/114/2
f 58/114/2 51/99/2 52/101/2 57/112/2
f 57/112/2 52/101/2 53/103/2 56/110/2
f 56/110/2 53/103/2 54/105/2 55/108/2
f 128/228/1 129/229/1 33/64/1 32/62/1
f 130/230/1 131/231/1 35/68/1 34/66/1
f 132/232/1 133/233/1 37/72/1 36/70/1
f 134/234/1 135/235/1 39/76/1 38/74/1
f 136/236/1 137/237/1 41/80/1 40/78/1
f 138/238/1 139/239/1 43/84/1 42/82/1
f 140/240/1 141/241/1 45/88/1 44/86/1
f 142/242/1 143/243/1 47/92/1 46/90/1
f 144/244/1 145/245/1 49/96/1 48/94/1
f 146/246/1 147/247/1 51/100/1 50/98/1
f 148/248/1 149/249/1 53/104/1 52/102/1
f 80/158/1 79/156/1 149/249/1 148/248/1
f 82/162/1 81/160/1 147/247/1 146/246/1
f 84/166/1 83/164/1 145/245/1 144/244/1
f 86/170/1 85/168/1 143/243/1 142/242/1
f 88/174/1 87/172/1 141/241/1 140/240/1
f 90/178/1 89/176/1 139/239/1 138/238/1
f 92/182/1 91/180/1 137/237/1 136/236/1
f 94/186/1 93/184/1 135/235/1 134/234/1
f 96/190/1 95/188/1 133/233/1 132/232/1
f 98/194/1 97/192/1 131/231/1 130/230/1
f 100/198/1 99/196/1 129/229/1 128/228/1
f 10/18/4 9/16/4 127/227/4 126/226/4
f 11/20/4 10/18/4 126/226/4 125/225/4
f 12/22/4 11/20/4 125/225/4 124/224/4
f 13/24/4 12/22/4 124/224/4 123/223/4
f 14/26/4 13/24/4 123/223/4 122/222/4
f 15/28/4 14/26/4 122/222/4 121/221/4
f 16/30/4 15/28/4 121/221/4 120/220/4
f 17/32/4 16/30/4 120/220/4 119/219/4
f 18/34/4 17/32/4 119/219/4 118/218/4
f 19/36/4 18/34/4 118/218/4 117/217/4
f 20/38/4 19/36/4 117/217/4 116/216/4
f 21/40/4 20/38/4 116/216/4 115/215/4
f 22/42/4 21/40/4 115/215/4 114/214/4
f 23/44/4 22/42/4 114/214/4 113/213/4
f 24/46/4 23/44/4 113/213/4 112/212/4
f 25/48/4 24/46/4 112/212/4 111/211/4
f 26/50/4 25/48/4 111/211/4 110/210/4
f 27/52/4 26/50/4 110/210/4 109/209/4
f 28/54/4 27/52/4 109/209/4 108/208/4
f 29/56/4 28/54/4 108/208/4 107/207/4
f 30/58/4 29/56/4 107/207/4 106/206/4
f 31/60/4 30/58/4 106/206/4 105/205/4
f 6/8/4 31/60/4 105/205/4 101/199/4
f 2/2/5 1/1/5 102/201/5 104/204/5
f 9/16/4 2/2/4 104/204/4 127/227/4
f 8/14/3 7/11/3 103/202/3 101/200/3
f 78/154/1 5/6/1 103/203/1 150/250/1
usemtl Malzeme
f 102/201/1 128/228/1 32/62/1 3/3/1
f 129/229/1 130/230/1 34/66/1 33/64/1
f 131/231/1 132/232/1 36/70/1 35/68/1
f 133/233/1 134/234/1 38/74/1 37/72/1
f 135/235/1 136/236/1 40/78/1 39/76/1
f 137/237/1 138/238/1 42/82/1 41/80/1
f 139/239/1 140/240/1 44/86/1 43/84/1
f 141/241/1 142/242/1 46/90/1 45/88/1
f 143/243/1 144/244/1 48/94/1 47/92/1
f 145/245/1 146/246/1 50/98/1 49/96/1
f 147/247/1 148/248/1 52/102/1 51/100/1
f 149/249/1 150/250/1 54/106/1 53/104/1
f 79/156/1 78/154/1 150/250/1 149/249/1
f 81/160/1 80/158/1 148/248/1 147/247/1
f 83/164/1 82/162/1 146/246/1 145/245/1
f 85/168/1 84/166/1 144/244/1 143/243/1
f 87/172/1 86/170/1 142/242/1 141/241/1
f 89/176/1 88/174/1 140/240/1 139/239/1
f 91/180/1 90/178/1 138/238/1 137/237/1
f 93/184/1 92/182/1 136/236/1 135/235/1
f 95/188/1 94/186/1 134/234/1 133/233/1
f 97/192/1 96/190/1 132/232/1 131/231/1
f 99/196/1 98/194/1 130/230/1 129/229/1
f 1/1/1 100/198/1 128/228/1 102/201/1
