# Blender 3.4.1
# www.blender.org
mtllib yolfinal.mtl
o Cube.001
v -17.708122 -0.250000 1.000000
v -17.708122 0.250000 1.000000
v -17.708122 -0.250000 -1.000000
v -17.708122 0.250000 -1.000000
v -15.708122 -0.250000 1.000000
v -15.708122 0.250000 1.000000
v -15.708122 -0.250000 -1.000000
v -15.708122 0.250000 -1.000000
v 14.358776 0.250000 -1.000000
v 14.358776 -0.250000 -1.000000
v 14.358776 0.250000 1.000000
v 14.358776 -0.250000 1.000000
v -13.986951 0.250000 -1.000000
v -13.986951 -0.250000 -1.000000
v -13.986951 0.250000 1.000000
v -13.986951 -0.250000 1.000000
v 13.177704 -0.250000 -1.000000
v 11.996632 -0.250000 -1.000000
v 10.815561 -0.250000 -1.000000
v 9.634487 -0.250000 -1.000000
v 8.453417 -0.250000 -1.000000
v 7.272345 -0.250000 -1.000000
v 6.091274 -0.250000 -1.000000
v 4.910202 -0.250000 -1.000000
v 3.729130 -0.250000 -1.000000
v 2.548058 -0.250000 -1.000000
v 1.366985 -0.250000 -1.000000
v 0.185913 -0.250000 -1.000000
v -0.995158 -0.250000 -1.000000
v -2.176230 -0.250000 -1.000000
v -3.357303 -0.250000 -1.000000
v -4.538374 -0.250000 -1.000000
v -5.719446 -0.250000 -1.000000
v -6.900518 -0.250000 -1.000000
v -8.081591 -0.250000 -1.000000
v -9.262662 -0.250000 -1.000000
v -10.443733 -0.250000 -1.000000
v -11.624805 -0.250000 -1.000000
v -12.805878 -0.250000 -1.000000
v 13.177704 0.250000 1.000000
v 11.996632 0.250000 1.000000
v 10.815561 0.250000 1.000000
v 9.634487 0.250000 1.000000
v 8.453417 0.250000 1.000000
v 7.272345 0.250000 1.000000
v 6.091274 0.250000 1.000000
v 4.910202 0.250000 1.000000
v 3.729130 0.250000 1.000000
v 2.548058 0.250000 1.000000
v 1.366985 0.250000 1.000000
v 0.185913 0.250000 1.000000
v -0.995158 0.250000 1.000000
v -2.176230 0.250000 1.000000
v -3.357303 0.250000 1.000000
v -4.538374 0.250000 1.000000
v -5.719446 0.250000 1.000000
v -6.900518 0.250000 1.000000
v -8.081591 0.250000 1.000000
v -9.262662 0.250000 1.000000
v -10.443733 0.250000 1.000000
v -11.624805 0.250000 1.000000
v -12.805878 0.250000 1.000000
v -12.805878 -0.250000 1.000000
v -11.624807 -0.250000 1.000000
v -10.443735 -0.250000 1.000000
v -9.262665 -0.250000 1.000000
v -8.081593 -0.250000 1.000000
v -6.900520 -0.250000 1.000000
v -5.719448 -0.250000 1.000000
v -4.538376 -0.250000 1.000000
v -3.357305 -0.250000 1.000000
v -2.176232 -0.250000 1.000000
v -0.995160 -0.250000 1.000000
v 0.185911 -0.250000 1.000000
v 1.366983 -0.250000 1.000000
v 2.548056 -0.250000 1.000000
v 3.729128 -0.250000 1.000000
v 4.910200 -0.250000 1.000000
v 6.091272 -0.250000 1.000000
v 7.272343 -0.250000 1.000000
v 8.453415 -0.250000 1.000000
v 9.634487 -0.250000 1.000000
v 10.815559 -0.250000 1.000000
v 11.996632 -0.250000 1.000000
v 13.177704 -0.250000 1.000000
v -12.805878 0.250000 -1.000000
v -11.624807 0.250000 -1.000000
v -10.443735 0.250000 -1.000000
v -9.262665 0.250000 -1.000000
v -8.081593 0.250000 -1.000000
v -6.900520 0.250000 -1.000000
v -5.719448 0.250000 -1.000000
v -4.538376 0.250000 -1.000000
v -3.357305 0.250000 -1.000000
v -2.176232 0.250000 -1.000000
v -0.995160 0.250000 -1.000000
v 0.185911 0.250000 -1.000000
v 1.366983 0.250000 -1.000000
v 2.548056 0.250000 -1.000000
v 3.729128 0.250000 -1.000000
v 4.910200 0.250000 -1.000000
v 6.091272 0.250000 -1.000000
v 7.272343 0.250000 -1.000000
v 8.453415 0.250000 -1.000000
v 9.634487 0.250000 -1.000000
v 10.815559 0.250000 -1.000000
v 11.996632 0.250000 -1.000000
v 13.177704 0.250000 -1.000000
v -13.986951 -0.250000 0.000000
v 14.358776 0.250000 0.000000
v -13.986951 0.250000 0.000000
v 14.358776 -0.250000 0.000000
v -13.412115 -0.250000 0.000000
v -12.231044 -0.250000 0.000000
v -11.049972 -0.250000 0.000000
v -9.868899 -0.250000 0.000000
v -8.687828 -0.250000 0.000000
v -7.506757 -0.250000 0.000000
v -6.325685 -0.250000 0.000000
v -5.144612 -0.250000 0.000000
v -3.963540 -0.250000 0.000000
v -2.782469 -0.250000 0.000000
v -1.601396 -0.250000 0.000000
v -0.420324 -0.250000 0.000000
v 0.760748 -0.250000 0.000000
v 1.941820 -0.250000 0.000000
v 3.122892 -0.250000 0.000000
v 4.303965 -0.250000 0.000000
v 5.485035 -0.250000 0.000000
v 6.666107 -0.250000 0.000000
v 7.847179 -0.250000 0.000000
v 9.028252 -0.250000 0.000000
v 10.209324 -0.250000 0.000000
v 11.390396 -0.250000 0.000000
v 12.571465 -0.250000 0.000000
v 12.571465 0.250000 0.000000
v 11.390396 0.250000 0.000000
v 10.209324 0.250000 0.000000
v 9.028252 0.250000 0.000000
v 7.847179 0.250000 0.000000
v 6.666107 0.250000 0.000000
v 5.485035 0.250000 0.000000
v 4.303965 0.250000 0.000000
v 3.122892 0.250000 0.000000
v 1.941820 0.250000 0.000000
v 0.760748 0.250000 0.000000
v -0.420324 0.250000 0.000000
v -1.601396 0.250000 0.000000
v -2.782469 0.250000 0.000000
v -3.963540 0.250000 0.000000
v -5.144612 0.250000 0.000000
v -6.325685 0.250000 0.000000
v -7.506757 0.250000 0.000000
v -8.687828 0.250000 0.000000
v -9.868899 0.250000 0.000000
v -11.049972 0.250000 0.000000
v -12.231044 0.250000 0.000000
v -13.412115 0.250000 0.000000
v -14.453872 -0.250000 -2.861324
v -14.453872 0.250000 -2.861324
v -14.156934 -0.250000 -2.806345
v -14.156934 0.250000 -2.806345
v -13.871407 -0.250000 -2.643519
v -13.871407 0.250000 -2.643519
v -13.608263 -0.250000 -2.379104
v -13.608263 0.250000 -2.379104
v -13.377617 -0.250000 -2.023262
v -13.377617 0.250000 -2.023262
v -13.188330 -0.250000 -1.589667
v -13.188330 0.250000 -1.589667
v -13.047676 -0.250000 -1.094981
v -13.047676 0.250000 -1.094981
v -12.961062 -0.250000 -0.558217
v -12.961062 0.250000 -0.558217
v -12.931816 -0.250000 0.000000
v -12.931816 0.250000 0.000000
v -12.961062 -0.250000 0.558217
v -12.961062 0.250000 0.558217
v -13.047676 -0.250000 1.094981
v -13.047676 0.250000 1.094981
v -13.188330 -0.250000 1.589667
v -13.188330 0.250000 1.589667
v -13.377617 -0.250000 2.023262
v -13.377617 0.250000 2.023262
v -13.608263 -0.250000 2.379104
v -13.608263 0.250000 2.379104
v -13.871407 -0.250000 2.643519
v -13.871407 0.250000 2.643519
v -14.156934 -0.250000 2.806345
v -14.156934 0.250000 2.806345
v -14.453872 -0.250000 2.861324
v -14.453872 0.250000 2.861324
v -14.750810 -0.250000 2.806345
v -14.750810 0.250000 2.806345
v -15.036337 -0.250000 2.643519
v -15.036337 0.250000 2.643519
v -15.299480 -0.250000 2.379104
v -15.299480 0.250000 2.379104
v -15.530128 -0.250000 2.023262
v -15.530128 0.250000 2.023262
v -15.719415 -0.250000 1.589667
v -15.719415 0.250000 1.589667
v -15.860067 -0.250000 1.094981
v -15.860067 0.250000 1.094981
v -15.946681 -0.250000 0.558217
v -15.946681 0.250000 0.558217
v -15.975927 -0.250000 0.000000
v -15.975927 0.250000 0.000000
v -15.946681 -0.250000 -0.558217
v -15.946681 0.250000 -0.558217
v -15.860067 -0.250000 -1.094981
v -15.860067 0.250000 -1.094981
v -15.719415 -0.250000 -1.589667
v -15.719415 0.250000 -1.589667
v -15.530128 -0.250000 -2.023262
v -15.530128 0.250000 -2.023262
v -15.299480 -0.250000 -2.379104
v -15.299480 0.250000 -2.379104
v -15.036337 -0.250000 -2.643519
v -15.036337 0.250000 -2.643519
v -14.750810 -0.250000 -2.806345
v -14.750810 0.250000 -2.806345
vn -1.0000 -0.0000 -0.0000
vn -0.0000 -0.0000 -1.0000
vn 1.0000 -0.0000 -0.0000
vn -0.0000 -0.0000 1.0000
vn -0.0000 -1.0000 -0.0000
vn -0.0000 1.0000 -0.0000
vn 0.1821 -0.0000 -0.9833
vn 0.4954 -0.0000 -0.8687
vn 0.7088 -0.0000 -0.7054
vn 0.8391 -0.0000 -0.5439
vn 0.9165 -0.0000 -0.4001
vn 0.9619 -0.0000 -0.2735
vn 0.9872 -0.0000 -0.1593
vn 0.9986 -0.0000 -0.0523
vn 0.9986 -0.0000 0.0523
vn 0.9872 -0.0000 0.1593
vn 0.9619 -0.0000 0.2735
vn 0.9165 -0.0000 0.4001
vn 0.8391 -0.0000 0.5439
vn 0.7088 -0.0000 0.7054
vn 0.4954 -0.0000 0.8687
vn 0.1821 -0.0000 0.9833
vn -0.1821 -0.0000 0.9833
vn -0.4954 -0.0000 0.8687
vn -0.7088 -0.0000 0.7054
vn -0.8391 -0.0000 0.5439
vn -0.9165 -0.0000 0.4001
vn -0.9619 -0.0000 0.2735
vn -0.9872 -0.0000 0.1593
vn -0.9986 -0.0000 0.0523
vn -0.9986 -0.0000 -0.0523
vn -0.9872 -0.0000 -0.1593
vn -0.9619 -0.0000 -0.2735
vn -0.9165 -0.0000 -0.4001
vn -0.8391 -0.0000 -0.5439
vn -0.7088 -0.0000 -0.7054
vn -0.4954 -0.0000 -0.8687
vn -0.1821 -0.0000 -0.9833
vt 0.375000 0.000000
vt 0.375000 1.000000
vt 0.125000 0.750000
vt 0.625000 0.000000
vt 0.625000 1.000000
vt 0.875000 0.750000
vt 0.375000 0.250000
vt 0.125000 0.500000
vt 0.625000 0.250000
vt 0.875000 0.500000
vt 0.375000 0.750000
vt 0.625000 0.750000
vt 0.375000 0.500000
vt 0.625000 0.500000
vt 0.625000 0.500000
vt 0.375000 0.500000
vt 0.625000 0.750000
vt 0.375000 0.750000
vt 0.625000 0.250000
vt 0.875000 0.500000
vt 0.375000 0.250000
vt 0.125000 0.500000
vt 0.875000 0.750000
vt 0.625000 1.000000
vt 0.625000 0.000000
vt 0.375000 1.000000
vt 0.125000 0.750000
vt 0.375000 0.000000
vt 0.375000 0.489583
vt 0.364583 0.500000
vt 0.375000 0.479167
vt 0.354167 0.500000
vt 0.375000 0.468750
vt 0.343750 0.500000
vt 0.375000 0.458333
vt 0.333333 0.500000
vt 0.375000 0.447917
vt 0.322917 0.500000
vt 0.375000 0.437500
vt 0.312500 0.500000
vt 0.375000 0.427083
vt 0.302083 0.500000
vt 0.375000 0.416667
vt 0.291667 0.500000
vt 0.375000 0.406250
vt 0.281250 0.500000
vt 0.375000 0.395833
vt 0.270833 0.500000
vt 0.375000 0.385417
vt 0.260417 0.500000
vt 0.375000 0.375000
vt 0.250000 0.500000
vt 0.375000 0.364583
vt 0.239583 0.500000
vt 0.375000 0.354167
vt 0.229167 0.500000
vt 0.375000 0.343750
vt 0.218750 0.500000
vt 0.375000 0.333333
vt 0.208333 0.500000
vt 0.375000 0.322917
vt 0.197917 0.500000
vt 0.375000 0.312500
vt 0.187500 0.500000
vt 0.375000 0.302083
vt 0.177083 0.500000
vt 0.375000 0.291667
vt 0.166667 0.500000
vt 0.375000 0.281250
vt 0.156250 0.500000
vt 0.375000 0.270833
vt 0.145833 0.500000
vt 0.375000 0.260417
vt 0.135417 0.500000
vt 0.625000 0.760417
vt 0.635417 0.750000
vt 0.625000 0.770833
vt 0.645833 0.750000
vt 0.625000 0.781250
vt 0.656250 0.750000
vt 0.625000 0.791667
vt 0.666667 0.750000
vt 0.625000 0.802083
vt 0.677083 0.750000
vt 0.625000 0.812500
vt 0.687500 0.750000
vt 0.625000 0.822917
vt 0.697917 0.750000
vt 0.625000 0.833333
vt 0.708333 0.750000
vt 0.625000 0.843750
vt 0.718750 0.750000
vt 0.625000 0.854167
vt 0.729167 0.750000
vt 0.625000 0.864583
vt 0.739583 0.750000
vt 0.625000 0.875000
vt 0.750000 0.750000
vt 0.625000 0.885417
vt 0.760417 0.750000
vt 0.625000 0.895833
vt 0.770833 0.750000
vt 0.625000 0.906250
vt 0.781250 0.750000
vt 0.625000 0.916667
vt 0.791667 0.750000
vt 0.625000 0.927083
vt 0.802083 0.750000
vt 0.625000 0.937500
vt 0.812500 0.750000
vt 0.625000 0.947917
vt 0.822917 0.750000
vt 0.625000 0.958333
vt 0.833333 0.750000
vt 0.625000 0.968750
vt 0.843750 0.750000
vt 0.625000 0.979167
vt 0.854167 0.750000
vt 0.625000 0.989583
vt 0.864583 0.750000
vt 0.135417 0.750000
vt 0.375000 0.989583
vt 0.145833 0.750000
vt 0.375000 0.979167
vt 0.156250 0.750000
vt 0.375000 0.968750
vt 0.166667 0.750000
vt 0.375000 0.958333
vt 0.177083 0.750000
vt 0.375000 0.947917
vt 0.187500 0.750000
vt 0.375000 0.937500
vt 0.197917 0.750000
vt 0.375000 0.927083
vt 0.208333 0.750000
vt 0.375000 0.916667
vt 0.218750 0.750000
vt 0.375000 0.906250
vt 0.229167 0.750000
vt 0.375000 0.895833
vt 0.239583 0.750000
vt 0.375000 0.885417
vt 0.250000 0.750000
vt 0.375000 0.875000
vt 0.260417 0.750000
vt 0.375000 0.864583
vt 0.270833 0.750000
vt 0.375000 0.854167
vt 0.281250 0.750000
vt 0.375000 0.843750
vt 0.291667 0.750000
vt 0.375000 0.833333
vt 0.302083 0.750000
vt 0.375000 0.822917
vt 0.312500 0.750000
vt 0.375000 0.812500
vt 0.322917 0.750000
vt 0.375000 0.802083
vt 0.333333 0.750000
vt 0.375000 0.791667
vt 0.343750 0.750000
vt 0.375000 0.781250
vt 0.354167 0.750000
vt 0.375000 0.770833
vt 0.364583 0.750000
vt 0.375000 0.760417
vt 0.625000 0.260417
vt 0.864583 0.500000
vt 0.625000 0.270833
vt 0.854167 0.500000
vt 0.625000 0.281250
vt 0.843750 0.500000
vt 0.625000 0.291667
vt 0.833333 0.500000
vt 0.625000 0.302083
vt 0.822917 0.500000
vt 0.625000 0.312500
vt 0.812500 0.500000
vt 0.625000 0.322917
vt 0.802083 0.500000
vt 0.625000 0.333333
vt 0.791667 0.500000
vt 0.625000 0.343750
vt 0.781250 0.500000
vt 0.625000 0.354167
vt 0.770833 0.500000
vt 0.625000 0.364583
vt 0.760417 0.500000
vt 0.625000 0.375000
vt 0.750000 0.500000
vt 0.625000 0.385417
vt 0.739583 0.500000
vt 0.625000 0.395833
vt 0.729167 0.500000
vt 0.625000 0.406250
vt 0.718750 0.500000
vt 0.625000 0.416667
vt 0.708333 0.500000
vt 0.625000 0.427083
vt 0.697917 0.500000
vt 0.625000 0.437500
vt 0.687500 0.500000
vt 0.625000 0.447917
vt 0.677083 0.500000
vt 0.625000 0.458333
vt 0.666667 0.500000
vt 0.625000 0.468750
vt 0.656250 0.500000
vt 0.625000 0.479167
vt 0.645833 0.500000
vt 0.625000 0.489583
vt 0.635417 0.500000
vt 0.125000 0.625000
vt 0.375000 0.125000
vt 0.625000 0.625000
vt 0.625000 0.125000
vt 0.875000 0.625000
vt 0.375000 0.625000
vt 0.135417 0.625000
vt 0.145833 0.625000
vt 0.156250 0.625000
vt 0.166667 0.625000
vt 0.177083 0.625000
vt 0.187500 0.625000
vt 0.197917 0.625000
vt 0.208333 0.625000
vt 0.218750 0.625000
vt 0.229167 0.625000
vt 0.239583 0.625000
vt 0.250000 0.625000
vt 0.260417 0.625000
vt 0.270833 0.625000
vt 0.281250 0.625000
vt 0.291667 0.625000
vt 0.302083 0.625000
vt 0.312500 0.625000
vt 0.322917 0.625000
vt 0.333333 0.625000
vt 0.343750 0.625000
vt 0.354167 0.625000
vt 0.364583 0.625000
vt 0.635417 0.625000
vt 0.645833 0.625000
vt 0.656250 0.625000
vt 0.666667 0.625000
vt 0.677083 0.625000
vt 0.687500 0.625000
vt 0.697917 0.625000
vt 0.708333 0.625000
vt 0.718750 0.625000
vt 0.729167 0.625000
vt 0.739583 0.625000
vt 0.750000 0.625000
vt 0.760417 0.625000
vt 0.770833 0.625000
vt 0.781250 0.625000
vt 0.791667 0.625000
vt 0.802083 0.625000
vt 0.812500 0.625000
vt 0.822917 0.625000
vt 0.833333 0.625000
vt 0.843750 0.625000
vt 0.854167 0.625000
vt 0.864583 0.625000
vt 1.000000 0.500000
vt 0.000000 0.500000
vt 0.750000 0.490000
vt 1.000000 1.000000
vt 0.250000 0.490000
vt 0.000000 1.000000
vt 0.968750 0.500000
vt 0.796822 0.485388
vt 0.968750 1.000000
vt 0.296822 0.485388
vt 0.937500 0.500000
vt 0.841844 0.471731
vt 0.937500 1.000000
vt 0.341844 0.471731
vt 0.906250 0.500000
vt 0.883337 0.449553
vt 0.906250 1.000000
vt 0.383337 0.449553
vt 0.875000 0.500000
vt 0.919706 0.419706
vt 0.875000 1.000000
vt 0.419706 0.419706
vt 0.843750 0.500000
vt 0.949553 0.383337
vt 0.843750 1.000000
vt 0.449553 0.383337
vt 0.812500 0.500000
vt 0.971731 0.341844
vt 0.812500 1.000000
vt 0.471731 0.341844
vt 0.781250 0.500000
vt 0.985388 0.296822
vt 0.781250 1.000000
vt 0.485388 0.296822
vt 0.750000 0.500000
vt 0.990000 0.250000
vt 0.750000 1.000000
vt 0.490000 0.250000
vt 0.718750 0.500000
vt 0.985388 0.203178
vt 0.718750 1.000000
vt 0.485388 0.203178
vt 0.687500 0.500000
vt 0.971731 0.158156
vt 0.687500 1.000000
vt 0.471731 0.158156
vt 0.656250 0.500000
vt 0.949553 0.116663
vt 0.656250 1.000000
vt 0.449553 0.116663
vt 0.625000 0.500000
vt 0.919706 0.080294
vt 0.625000 1.000000
vt 0.419706 0.080294
vt 0.593750 0.500000
vt 0.883337 0.050447
vt 0.593750 1.000000
vt 0.383337 0.050447
vt 0.562500 0.500000
vt 0.841844 0.028269
vt 0.562500 1.000000
vt 0.341844 0.028269
vt 0.531250 0.500000
vt 0.796822 0.014612
vt 0.531250 1.000000
vt 0.296822 0.014612
vt 0.500000 0.500000
vt 0.750000 0.010000
vt 0.500000 1.000000
vt 0.250000 0.010000
vt 0.468750 0.500000
vt 0.703178 0.014612
vt 0.468750 1.000000
vt 0.203178 0.014612
vt 0.437500 0.500000
vt 0.658156 0.028269
vt 0.437500 1.000000
vt 0.158156 0.028269
vt 0.406250 0.500000
vt 0.616663 0.050447
vt 0.406250 1.000000
vt 0.116663 0.050447
vt 0.375000 0.500000
vt 0.580294 0.080294
vt 0.375000 1.000000
vt 0.080294 0.080294
vt 0.343750 0.500000
vt 0.550447 0.116663
vt 0.343750 1.000000
vt 0.050447 0.116663
vt 0.312500 0.500000
vt 0.528269 0.158156
vt 0.312500 1.000000
vt 0.028269 0.158156
vt 0.281250 0.500000
vt 0.514612 0.203178
vt 0.281250 1.000000
vt 0.014612 0.203178
vt 0.250000 0.500000
vt 0.510000 0.250000
vt 0.250000 1.000000
vt 0.010000 0.250000
vt 0.218750 0.500000
vt 0.514612 0.296822
vt 0.218750 1.000000
vt 0.014612 0.296822
vt 0.187500 0.500000
vt 0.528269 0.341844
vt 0.187500 1.000000
vt 0.028269 0.341844
vt 0.156250 0.500000
vt 0.550447 0.383337
vt 0.156250 1.000000
vt 0.050447 0.383337
vt 0.125000 0.500000
vt 0.580294 0.419706
vt 0.125000 1.000000
vt 0.080294 0.419706
vt 0.093750 0.500000
vt 0.616663 0.449553
vt 0.093750 1.000000
vt 0.116663 0.449553
vt 0.062500 0.500000
vt 0.658156 0.471731
vt 0.158156 0.471731
vt 0.062500 1.000000
vt 0.031250 0.500000
vt 0.703178 0.485388
vt 0.203178 0.485388
vt 0.031250 1.000000
s 0
usemtl Material
f 1/1/1 2/4/1 4/9/1 3/7/1
f 3/7/2 4/9/2 8/14/2 7/13/2
f 7/13/3 8/14/3 6/12/3 5/11/3
f 5/11/4 6/12/4 2/5/4 1/2/4
f 3/8/5 7/13/5 5/11/5 1/3/5
f 8/14/6 4/10/6 2/6/6 6/12/6
f 158/264/6 111/217/6 15/23/6 62/120/6
f 63/122/4 62/119/4 15/24/4 16/26/4
f 109/214/1 111/216/1 13/19/1 14/21/1
f 135/241/5 112/218/5 12/18/5 85/165/5
f 112/218/3 110/215/3 11/17/3 12/18/3
f 17/29/2 108/211/2 9/15/2 10/16/2
f 14/21/2 13/19/2 86/167/2 39/73/2
f 39/73/2 86/167/2 87/169/2 38/71/2
f 38/71/2 87/169/2 88/171/2 37/69/2
f 37/69/2 88/171/2 89/173/2 36/67/2
f 36/67/2 89/173/2 90/175/2 35/65/2
f 35/65/2 90/175/2 91/177/2 34/63/2
f 34/63/2 91/177/2 92/179/2 33/61/2
f 33/61/2 92/179/2 93/181/2 32/59/2
f 32/59/2 93/181/2 94/183/2 31/57/2
f 31/57/2 94/183/2 95/185/2 30/55/2
f 30/55/2 95/185/2 96/187/2 29/53/2
f 29/53/2 96/187/2 97/189/2 28/51/2
f 28/51/2 97/189/2 98/191/2 27/49/2
f 27/49/2 98/191/2 99/193/2 26/47/2
f 26/47/2 99/193/2 100/195/2 25/45/2
f 25/45/2 100/195/2 101/197/2 24/43/2
f 24/43/2 101/197/2 102/199/2 23/41/2
f 23/41/2 102/199/2 103/201/2 22/39/2
f 22/39/2 103/201/2 104/203/2 21/37/2
f 21/37/2 104/203/2 105/205/2 20/35/2
f 20/35/2 105/205/2 106/207/2 19/33/2
f 19/33/2 106/207/2 107/209/2 18/31/2
f 18/31/2 107/209/2 108/211/2 17/29/2
f 109/213/5 113/219/5 63/121/5 16/27/5
f 113/219/5 114/220/5 64/123/5 63/121/5
f 114/220/5 115/221/5 65/125/5 64/123/5
f 115/221/5 116/222/5 66/127/5 65/125/5
f 116/222/5 117/223/5 67/129/5 66/127/5
f 117/223/5 118/224/5 68/131/5 67/129/5
f 118/224/5 119/225/5 69/133/5 68/131/5
f 119/225/5 120/226/5 70/135/5 69/133/5
f 120/226/5 121/227/5 71/137/5 70/135/5
f 121/227/5 122/228/5 72/139/5 71/137/5
f 122/228/5 123/229/5 73/141/5 72/139/5
f 123/229/5 124/230/5 74/143/5 73/141/5
f 124/230/5 125/231/5 75/145/5 74/143/5
f 125/231/5 126/232/5 76/147/5 75/145/5
f 126/232/5 127/233/5 77/149/5 76/147/5
f 127/233/5 128/234/5 78/151/5 77/149/5
f 128/234/5 129/235/5 79/153/5 78/151/5
f 129/235/5 130/236/5 80/155/5 79/153/5
f 130/236/5 131/237/5 81/157/5 80/155/5
f 131/237/5 132/238/5 82/159/5 81/157/5
f 132/238/5 133/239/5 83/161/5 82/159/5
f 133/239/5 134/240/5 84/163/5 83/161/5
f 134/240/5 135/241/5 85/165/5 84/163/5
f 12/18/4 11/17/4 40/75/4 85/166/4
f 85/166/4 40/75/4 41/77/4 84/164/4
f 84/164/4 41/77/4 42/79/4 83/162/4
f 83/162/4 42/79/4 43/81/4 82/160/4
f 82/160/4 43/81/4 44/83/4 81/158/4
f 81/158/4 44/83/4 45/85/4 80/156/4
f 80/156/4 45/85/4 46/87/4 79/154/4
f 79/154/4 46/87/4 47/89/4 78/152/4
f 78/152/4 47/89/4 48/91/4 77/150/4
f 77/150/4 48/91/4 49/93/4 76/148/4
f 76/148/4 49/93/4 50/95/4 75/146/4
f 75/146/4 50/95/4 51/97/4 74/144/4
f 74/144/4 51/97/4 52/99/4 73/142/4
f 73/142/4 52/99/4 53/101/4 72/140/4
f 72/140/4 53/101/4 54/103/4 71/138/4
f 71/138/4 54/103/4 55/105/4 70/136/4
f 70/136/4 55/105/4 56/107/4 69/134/4
f 69/134/4 56/107/4 57/109/4 68/132/4
f 68/132/4 57/109/4 58/111/4 67/130/4
f 67/130/4 58/111/4 59/113/4 66/128/4
f 66/128/4 59/113/4 60/115/4 65/126/4
f 65/126/4 60/115/4 61/117/4 64/124/4
f 64/124/4 61/117/4 62/119/4 63/122/4
f 136/242/6 137/243/6 41/78/6 40/76/6
f 138/244/6 139/245/6 43/82/6 42/80/6
f 140/246/6 141/247/6 45/86/6 44/84/6
f 142/248/6 143/249/6 47/90/6 46/88/6
f 144/250/6 145/251/6 49/94/6 48/92/6
f 146/252/6 147/253/6 51/98/6 50/96/6
f 148/254/6 149/255/6 53/102/6 52/100/6
f 150/256/6 151/257/6 55/106/6 54/104/6
f 152/258/6 153/259/6 57/110/6 56/108/6
f 154/260/6 155/261/6 59/114/6 58/112/6
f 156/262/6 157/263/6 61/118/6 60/116/6
f 88/172/6 87/170/6 157/263/6 156/262/6
f 90/176/6 89/174/6 155/261/6 154/260/6
f 92/180/6 91/178/6 153/259/6 152/258/6
f 94/184/6 93/182/6 151/257/6 150/256/6
f 96/188/6 95/186/6 149/255/6 148/254/6
f 98/192/6 97/190/6 147/253/6 146/252/6
f 100/196/6 99/194/6 145/251/6 144/250/6
f 102/200/6 101/198/6 143/249/6 142/248/6
f 104/204/6 103/202/6 141/247/6 140/246/6
f 106/208/6 105/206/6 139/245/6 138/244/6
f 108/212/6 107/210/6 137/243/6 136/242/6
f 18/32/5 17/30/5 135/241/5 134/240/5
f 19/34/5 18/32/5 134/240/5 133/239/5
f 20/36/5 19/34/5 133/239/5 132/238/5
f 21/38/5 20/36/5 132/238/5 131/237/5
f 22/40/5 21/38/5 131/237/5 130/236/5
f 23/42/5 22/40/5 130/236/5 129/235/5
f 24/44/5 23/42/5 129/235/5 128/234/5
f 25/46/5 24/44/5 128/234/5 127/233/5
f 26/48/5 25/46/5 127/233/5 126/232/5
f 27/50/5 26/48/5 126/232/5 125/231/5
f 28/52/5 27/50/5 125/231/5 124/230/5
f 29/54/5 28/52/5 124/230/5 123/229/5
f 30/56/5 29/54/5 123/229/5 122/228/5
f 31/58/5 30/56/5 122/228/5 121/227/5
f 32/60/5 31/58/5 121/227/5 120/226/5
f 33/62/5 32/60/5 120/226/5 119/225/5
f 34/64/5 33/62/5 119/225/5 118/224/5
f 35/66/5 34/64/5 118/224/5 117/223/5
f 36/68/5 35/66/5 117/223/5 116/222/5
f 37/70/5 36/68/5 116/222/5 115/221/5
f 38/72/5 37/70/5 115/221/5 114/220/5
f 39/74/5 38/72/5 114/220/5 113/219/5
f 14/22/5 39/74/5 113/219/5 109/213/5
f 10/16/3 9/15/3 110/215/3 112/218/3
f 17/30/5 10/16/5 112/218/5 135/241/5
f 16/28/1 15/25/1 111/216/1 109/214/1
f 86/168/6 13/20/6 111/217/6 158/264/6
f 159/265/7 160/268/7 162/273/7 161/271/7
f 161/271/8 162/273/8 164/277/8 163/275/8
f 163/275/9 164/277/9 166/281/9 165/279/9
f 165/279/10 166/281/10 168/285/10 167/283/10
f 167/283/11 168/285/11 170/289/11 169/287/11
f 169/287/12 170/289/12 172/293/12 171/291/12
f 171/291/13 172/293/13 174/297/13 173/295/13
f 173/295/14 174/297/14 176/301/14 175/299/14
f 175/299/15 176/301/15 178/305/15 177/303/15
f 177/303/16 178/305/16 180/309/16 179/307/16
f 179/307/17 180/309/17 182/313/17 181/311/17
f 181/311/18 182/313/18 184/317/18 183/315/18
f 183/315/19 184/317/19 186/321/19 185/319/19
f 185/319/20 186/321/20 188/325/20 187/323/20
f 187/323/21 188/325/21 190/329/21 189/327/21
f 189/327/22 190/329/22 192/333/22 191/331/22
f 191/331/23 192/333/23 194/337/23 193/335/23
f 193/335/24 194/337/24 196/341/24 195/339/24
f 195/339/25 196/341/25 198/345/25 197/343/25
f 197/343/26 198/345/26 200/349/26 199/347/26
f 199/347/27 200/349/27 202/353/27 201/351/27
f 201/351/28 202/353/28 204/357/28 203/355/28
f 203/355/29 204/357/29 206/361/29 205/359/29
f 205/359/30 206/361/30 208/365/30 207/363/30
f 207/363/31 208/365/31 210/369/31 209/367/31
f 209/367/32 210/369/32 212/373/32 211/371/32
f 211/371/33 212/373/33 214/377/33 213/375/33
f 213/375/34 214/377/34 216/381/34 215/379/34
f 215/379/35 216/381/35 218/385/35 217/383/35
f 217/383/36 218/385/36 220/390/36 219/387/36
f 162/274/6 160/269/6 222/393/6 220/389/6 218/386/6 216/382/6 214/378/6 212/374/6 210/370/6 208/366/6 206/362/6 204/358/6 202/354/6 200/350/6 198/346/6 196/342/6 194/338/6 192/334/6 190/330/6 188/326/6 186/322/6 184/318/6 182/314/6 180/310/6 178/306/6 176/302/6 174/298/6 172/294/6 170/290/6 168/286/6 166/282/6 164/278/6
f 219/387/37 220/390/37 222/394/37 221/391/37
f 221/391/38 222/394/38 160/270/38 159/266/38
f 159/267/5 161/272/5 163/276/5 165/280/5 167/284/5 169/288/5 171/292/5 173/296/5 175/300/5 177/304/5 179/308/5 181/312/5 183/316/5 185/320/5 187/324/5 189/328/5 191/332/5 193/336/5 195/340/5 197/344/5 199/348/5 201/352/5 203/356/5 205/360/5 207/364/5 209/368/5 211/372/5 213/376/5 215/380/5 217/384/5 219/388/5 221/392/5
usemtl Malzeme
f 110/215/6 136/242/6 40/76/6 11/17/6
f 137/243/6 138/244/6 42/80/6 41/78/6
f 139/245/6 140/246/6 44/84/6 43/82/6
f 141/247/6 142/248/6 46/88/6 45/86/6
f 143/249/6 144/250/6 48/92/6 47/90/6
f 145/251/6 146/252/6 50/96/6 49/94/6
f 147/253/6 148/254/6 52/100/6 51/98/6
f 149/255/6 150/256/6 54/104/6 53/102/6
f 151/257/6 152/258/6 56/108/6 55/106/6
f 153/259/6 154/260/6 58/112/6 57/110/6
f 155/261/6 156/262/6 60/116/6 59/114/6
f 157/263/6 158/264/6 62/120/6 61/118/6
f 87/170/6 86/168/6 158/264/6 157/263/6
f 89/174/6 88/172/6 156/262/6 155/261/6
f 91/178/6 90/176/6 154/260/6 153/259/6
f 93/182/6 92/180/6 152/258/6 151/257/6
f 95/186/6 94/184/6 150/256/6 149/255/6
f 97/190/6 96/188/6 148/254/6 147/253/6
f 99/194/6 98/192/6 146/252/6 145/251/6
f 101/198/6 100/196/6 144/250/6 143/249/6
f 103/202/6 102/200/6 142/248/6 141/247/6
f 105/206/6 104/204/6 140/246/6 139/245/6
f 107/210/6 106/208/6 138/244/6 137/243/6
f 9/15/6 108/212/6 136/242/6 110/215/6
